<?xml version="1.0" encoding="iso-8859-1"?>
<!-- Generator: Adobe Illustrator 18.1.1, SVG Export Plug-In . SVG Version: 6.00 Build 0)  -->
<svg version="1.1" id="Capa_1" xmlns="http://www.w3.org/2000/svg" xmlns:xlink="http://www.w3.org/1999/xlink" x="0px" y="0px"
	 viewBox="0 0 199.813 199.813" style="enable-background:new 0 0 199.813 199.813;" xml:space="preserve">
<g>
	<g>
		<g>
			<path style="fill:#010002;" d="M139.945,110.923l-24.007,24.007l54.849,54.849l24.011-24.007L139.945,110.923z M122.498,134.93
				l17.447-17.45l48.293,48.293l-17.45,17.454L122.498,134.93z"/>
		</g>
		<g>
			<path style="fill:#010002;" d="M83.879,54.857L29.026,0L5.015,24.011l54.853,54.86L83.879,54.857z M29.026,6.56l48.293,48.293
				l-17.45,17.45L11.572,24.014L29.026,6.56z"/>
		</g>
		<g>
			<path style="fill:#010002;" d="M74.728,116.724l-7.337,7.34c-11.341-0.766-21.226,7.899-22.142,19.093l-0.19,2.312l19.605,1.603
				l0.011,3.633c-0.132,0.089-0.265,0.197-0.394,0.322c-1.496,1.496-1.496,3.933,0,5.433c0.727,0.73,1.689,1.131,2.716,1.131
				c1.031,0,1.997-0.401,2.724-1.131c0.727-0.723,1.124-1.693,1.124-2.72c0-1.024-0.401-1.99-1.124-2.713
				c-0.136-0.132-0.272-0.24-0.404-0.333l-0.011-3.242l17.297,1.417l0.179-2.316c0.505-6.098-1.696-12.089-6.034-16.438
				c-2.23-2.226-4.935-3.919-7.906-4.946l5.168-5.168l22.035,22.046l44.489-44.492L97.174,50.201L52.685,94.686L74.728,116.724z
				 M77.462,133.387c2.827,2.827,4.484,6.506,4.724,10.461l-31.963-2.613c1.772-7.666,9.065-13.174,17.11-12.53
				C71.163,129.018,74.756,130.689,77.462,133.387z M137.973,97.556l-37.929,37.929L59.245,94.682l37.929-37.918L137.973,97.556z"/>
		</g>
		<g>
			<path style="fill:#010002;" d="M45.767,161.75l-2.319,2.319c12.483,12.479,32.793,12.479,45.276,0l-2.326-2.319
				C75.196,172.948,56.969,172.952,45.767,161.75z"/>
		</g>
		<g>
			<path style="fill:#010002;" d="M27.182,180.449l-2.316,2.316c22.726,22.726,59.702,22.733,82.428,0.011l-2.326-2.326
				C83.524,201.894,48.634,201.894,27.182,180.449z"/>
		</g>
	</g>
</g>
<g>
</g>
<g>
</g>
<g>
</g>
<g>
</g>
<g>
</g>
<g>
</g>
<g>
</g>
<g>
</g>
<g>
</g>
<g>
</g>
<g>
</g>
<g>
</g>
<g>
</g>
<g>
</g>
<g>
</g>
</svg>
